<?xml version="1.0" encoding="UTF-8" standalone="no"?>
<!DOCTYPE svg PUBLIC "-//W3C//DTD SVG 1.1//EN" "http://www.w3.org/Graphics/SVG/1.1/DTD/svg11.dtd">
<!-- Created with Vectornator (http://vectornator.io/) -->
<svg height="100%" stroke-miterlimit="10" style="fill-rule:nonzero;clip-rule:evenodd;stroke-linecap:round;stroke-linejoin:round;" version="1.1" viewBox="0 0 1080 1080" width="100%" xml:space="preserve" xmlns="http://www.w3.org/2000/svg" xmlns:xlink="http://www.w3.org/1999/xlink">
<defs/>
<g id="Layer-1">
<g opacity="1">
<path d="M569.297 899.863L243.125 899.863L243.125 180.137L592.734 180.137C680.951 181.439 743.451 206.992 780.234 256.797C802.37 287.396 813.437 324.017 813.437 366.66C813.437 410.605 802.37 445.924 780.234 472.617C767.865 487.591 749.635 501.263 725.547 513.633C762.331 526.979 790.081 548.138 808.799 577.109C827.516 606.081 836.875 641.237 836.875 682.578C836.875 725.221 826.133 763.47 804.648 797.324C790.977 819.785 773.887 838.665 753.379 853.965C730.267 871.543 703.005 883.587 671.592 890.098C640.179 896.608 606.081 899.863 569.297 899.863ZM565.879 582.969L386.68 582.969L386.68 774.863L563.437 774.863C595.013 774.863 619.59 770.632 637.168 762.168C669.069 746.543 685.02 716.595 685.02 672.324C685.02 634.889 669.557 609.173 638.633 595.176C621.38 587.363 597.129 583.294 565.879 582.969ZM640.586 445.762C660.117 434.043 669.883 413.047 669.883 382.773C669.883 349.245 656.862 327.109 630.82 316.367C608.359 308.88 579.714 305.137 544.883 305.137L386.68 305.137L386.68 463.828L563.437 463.828C595.013 463.828 620.729 457.806 640.586 445.762Z" fill="#ead1b5" fill-rule="nonzero" opacity="1" stroke="none"/>
</g>
</g>
</svg>
