<?xml version="1.0" encoding="UTF-8" standalone="no"?>
<!DOCTYPE svg PUBLIC "-//W3C//DTD SVG 1.1//EN" "http://www.w3.org/Graphics/SVG/1.1/DTD/svg11.dtd">
<!-- Created with Vectornator (http://vectornator.io/) -->
<svg height="100%" stroke-miterlimit="10" style="fill-rule:nonzero;clip-rule:evenodd;stroke-linecap:round;stroke-linejoin:round;" version="1.1" viewBox="0 0 1080 1080" width="100%" xml:space="preserve" xmlns="http://www.w3.org/2000/svg" xmlns:xlink="http://www.w3.org/1999/xlink">
<defs/>
<g id="Layer-1">
<path d="M142.691 108.664L901.622 108.664L901.622 976.92L142.691 976.92L142.691 108.664Z" fill="#ffffff" fill-rule="nonzero" opacity="1" stroke="none"/>
<path d="M207.969 50.625C120.521 50.625 49.625 121.521 49.625 208.969C49.625 210.266 49.625 871.734 49.625 873.031C49.625 960.479 120.521 1031.37 207.969 1031.38L871.75 1031.38C959.198 1031.38 1030.06 960.479 1030.06 873.031L1030.06 208.969C1030.06 121.521 959.198 50.625 871.75 50.625L207.969 50.625ZM187.647 157.086L897.098 157.201C897.098 157.201 896.944 393.163 896.944 475.088L812.331 474.181C812.331 474.181 807.921 310.803 747.984 263.694C720.161 241.826 657.109 241.313 597.997 240.662C529.767 239.91 466.641 240.951 466.641 240.951L466.392 476.582C466.392 476.582 538.929 487.677 574.498 453.386C610.067 419.095 608.668 339.417 608.668 339.417L691.531 340.26L692.006 718.369L605.982 718.516C605.982 718.516 607.166 623.354 577.707 591.094C548.249 558.834 465.415 561.383 465.415 561.383C465.415 561.383 467.351 618.154 467.521 677.798C467.688 736.357 466.016 797.668 473.76 812.641C489.392 842.863 596.272 836.861 596.272 836.861C596.272 918.787 596.758 920.797 596.758 920.797L188.862 919.551L187.976 837.341C187.976 837.341 219.046 837.048 245.841 834.29C275.525 831.233 301.66 825.259 301.738 800.28C301.885 752.755 304.878 632.401 304.792 570.979C304.704 507.664 300.68 300.06 299.371 264.821C298.062 229.582 187.57 241.013 187.57 241.013L187.647 157.086Z" fill="#735095" fill-rule="nonzero" opacity="1" stroke="none"/>
</g>
</svg>
